<?xml version="1.0" encoding="utf-8"?>
<!-- Generator: Adobe Illustrator 15.0.0, SVG Export Plug-In . SVG Version: 6.00 Build 0)  -->
<!DOCTYPE svg PUBLIC "-//W3C//DTD SVG 1.1//EN" "http://www.w3.org/Graphics/SVG/1.1/DTD/svg11.dtd">
<svg version="1.1" id="Layer_1" xmlns="http://www.w3.org/2000/svg" xmlns:xlink="http://www.w3.org/1999/xlink" x="0px" y="0px"
	 width="45.025px" height="45.849px" viewBox="0 0 45.025 45.849" enable-background="new 0 0 45.025 45.849" xml:space="preserve">
<g>
	<g>
		<polygon fill="#231F20" points="22.643,3.364 43.635,14.345 45.025,11.687 22.684,0 0,11.17 1.326,13.861 		"/>
		<polygon fill="#231F20" points="3.663,20.183 0.663,20.183 0.663,45.849 3.663,45.849 3.663,38.349 41.33,38.349 41.33,45.849 
			44.33,45.849 44.33,35.349 3.663,35.349 		"/>
	</g>
	<circle fill="#E1524B" cx="9.372" cy="25.058" r="3.042"/>
	<path fill="#E1524B" d="M38.33,26.349c-4.5-0.333-23.167-2.5-23.167-2.5v6.563H8.027c-0.639,0-1.156,0.518-1.156,1.156
		s0.518,1.156,1.156,1.156h7.461l0.008,0.041H43.58c0,0,0-1.332,0-3.666C43.58,26.766,42.83,26.683,38.33,26.349z"/>
</g>
</svg>
