<?xml version="1.0" encoding="UTF-8"?>
<svg width="126px" height="32px" viewBox="0 0 126 32" version="1.1" xmlns="http://www.w3.org/2000/svg" xmlns:xlink="http://www.w3.org/1999/xlink">
    <!-- Generator: Sketch 52.2 (67145) - http://www.bohemiancoding.com/sketch -->
    <title>Logo/Nuclei_white</title>
    <desc>Created with Sketch.</desc>
    <g id="Website" stroke="none" stroke-width="1" fill="none" fill-rule="evenodd">
        <g id="Artboard" transform="translate(-90.000000, -37.000000)">
            <g id="Logo/Nuclei_Blue" transform="translate(92.000000, 39.000000)">
                <g id="Logo">
                    <g id="Group-3">
                        <g id="Group-2" stroke="#009EFF" stroke-linecap="round" stroke-linejoin="round" stroke-width="2.16">
                            <path d="M33.12,14.4 C25.4336583,4.80065252 20.6307825,0.000652524587 18.7113725,2.47268872e-12 C17.701945,0.00176962079 15.8384859,-0.00406291687 14.4016301,1.43494832 C13.4437262,2.39428915 12.9631828,3.83597304 12.96,5.76 L12.96,23.04 C12.9701624,24.9333216 13.4507057,26.3547547 14.4016301,27.3042993 C15.8280166,28.7286162 17.709007,28.8 18.7113725,28.8 C20.1027699,28.8 21.494867,27.7932907 22.8876637,25.779872" id="Path-3-Copy" transform="translate(23.040000, 14.400000) scale(-1, -1) translate(-23.040000, -14.400000) "></path>
                            <path d="M20.16,14.4 C12.4736583,4.80065252 7.67078248,0.000652524585 5.75137247,-2.84217094e-14 C4.74194498,0.00176962079 2.87848592,-0.00406291687 1.44163008,1.43494832 C0.483726193,2.39428915 0.00318283143,3.83597304 -2.84217094e-14,5.76 L-2.84217094e-14,23.04 C0.0101623768,24.9333216 0.490705738,26.3547547 1.44163008,27.3042993 C2.8680166,28.7286162 4.74900704,28.8 5.75137247,28.8 C7.14432957,28.8 8.53798787,27.7910325 9.93234739,25.7730975" id="Path-3-Copy-2"></path>
                        </g>
                        <circle id="Oval" fill="#009EFF" cx="21.528" cy="5.832" r="1.08"></circle>
                        <circle id="Oval-Copy-8" fill="#009EFF" cx="11.592" cy="22.968" r="1.08"></circle>
                        <path d="M13.5991352,17.014525 L11.2040536,14.2592988 C10.1605392,13.0588728 10.2877412,11.2397996 11.4881672,10.1962852 L12.8657354,8.99878344 C13.0583725,8.70906617 13.1546911,8.43299762 13.1546911,8.1705778 C13.1546911,7.90815799 13.0583725,7.63421829 12.8657354,7.34875871 L14.7638717,7.34875871 L15.2919035,6.88974771 L19.5764351,11.8185375 L22.0599464,14.6754905 C23.1034608,15.8759165 22.9762588,17.6949897 21.7758328,18.7385041 L20.3982646,19.9360059 C20.2056275,20.2257231 20.1093089,20.5017917 20.1093089,20.7642115 C20.1093089,21.0266313 20.2056275,21.300571 20.3982646,21.5860306 L18.5001283,21.5860306 L17.9720965,22.0450416 L13.5991352,17.014525 Z M16.632,15.552 C17.2284675,15.552 17.712,15.0684675 17.712,14.472 C17.712,13.8755325 17.2284675,13.392 16.632,13.392 C16.0355325,13.392 15.552,13.8755325 15.552,14.472 C15.552,15.0684675 16.0355325,15.552 16.632,15.552 Z" id="Combined-Shape" fill="#009EFF"></path>
                    </g>
                    <path d="M58.70592,6.272 C58.9977615,6.272 59.2358391,6.36799904 59.42016,6.56 C59.6044809,6.75200096 59.69664,6.99391854 59.69664,7.28576 L59.69664,21.27104 C59.69664,21.5936016 59.592961,21.8623989 59.3856,22.07744 C59.178239,22.2924811 58.9132816,22.4 58.59072,22.4 C58.4217592,22.4 58.2566408,22.3731203 58.09536,22.31936 C57.9340792,22.2655997 57.8073605,22.1849605 57.7152,22.07744 L48.66048,10.28096 L48.66048,21.38624 C48.66048,21.6780815 48.564481,21.919999 48.37248,22.112 C48.180479,22.304001 47.9385615,22.4 47.64672,22.4 C47.3548785,22.4 47.1168009,22.304001 46.93248,22.112 C46.7481591,21.919999 46.656,21.6780815 46.656,21.38624 L46.656,7.37792 C46.656,7.05535839 46.759679,6.79040104 46.96704,6.58304 C47.174401,6.37567896 47.4316785,6.272 47.73888,6.272 C47.9232009,6.272 48.0998392,6.30655965 48.2688,6.37568 C48.4377608,6.44480035 48.5683195,6.54079939 48.66048,6.66368 L57.69216,18.4832 L57.69216,7.28576 C57.69216,6.99391854 57.788159,6.75200096 57.98016,6.56 C58.172161,6.36799904 58.4140785,6.272 58.70592,6.272 Z M75.1104,10.32704 C75.4329616,10.32704 75.697919,10.4345589 75.90528,10.6496 C76.112641,10.8646411 76.21632,11.1257585 76.21632,11.43296 L76.21632,17.5616 C76.21632,19.159048 75.7747244,20.3993556 74.89152,21.28256 C74.0083156,22.1657644 72.7603281,22.60736 71.14752,22.60736 C69.550072,22.60736 68.3136044,22.1657644 67.43808,21.28256 C66.5625556,20.3993556 66.1248,19.159048 66.1248,17.5616 L66.1248,11.43296 C66.1248,11.1257585 66.228479,10.8646411 66.43584,10.6496 C66.643201,10.4345589 66.9004785,10.32704 67.20768,10.32704 C67.5302416,10.32704 67.795199,10.4345589 68.00256,10.6496 C68.209921,10.8646411 68.3136,11.1257585 68.3136,11.43296 L68.3136,17.5616 C68.3136,19.5737701 69.2582306,20.57984 71.14752,20.57984 C72.0844847,20.57984 72.7987175,20.3264025 73.29024,19.81952 C73.7817625,19.3126375 74.02752,18.560005 74.02752,17.5616 L74.02752,11.43296 C74.02752,11.1257585 74.131199,10.8646411 74.33856,10.6496 C74.545921,10.4345589 74.8031985,10.32704 75.1104,10.32704 Z M87.62112,10.05056 C88.8345661,10.05056 89.844476,10.2425581 90.65088,10.62656 C91.457284,11.0105619 91.86048,11.502077 91.86048,12.10112 C91.86048,12.3622413 91.7760008,12.596479 91.60704,12.80384 C91.4380792,13.011201 91.2230413,13.11488 90.96192,13.11488 C90.762239,13.11488 90.6048006,13.0841603 90.4896,13.02272 C90.3743994,12.9612797 90.216961,12.8614407 90.01728,12.7232 C89.9251195,12.6310395 89.779201,12.5235206 89.57952,12.40064 C89.3951991,12.3084795 89.1340817,12.2316803 88.79616,12.17024 C88.4582383,12.1087997 88.1510414,12.07808 87.87456,12.07808 C87.075836,12.07808 86.3692831,12.2623982 85.75488,12.63104 C85.1404769,12.9996818 84.6643217,13.5103967 84.3264,14.1632 C83.9884783,14.8160033 83.81952,15.541756 83.81952,16.34048 C83.81952,17.1545641 83.9846383,17.8841568 84.31488,18.52928 C84.6451217,19.1744032 85.109757,19.6812782 85.7088,20.04992 C86.307843,20.4185618 86.9913562,20.60288 87.75936,20.60288 C88.558084,20.60288 89.2031975,20.4800012 89.69472,20.23424 C89.8022405,20.1727997 89.9481591,20.0729607 90.13248,19.93472 C90.2860808,19.8118394 90.4204794,19.7196803 90.53568,19.65824 C90.6508806,19.5967997 90.7929592,19.56608 90.96192,19.56608 C91.2691215,19.56608 91.5110391,19.662079 91.68768,19.85408 C91.8643209,20.046081 91.95264,20.2956785 91.95264,20.60288 C91.95264,20.9254416 91.749122,21.2441584 91.34208,21.55904 C90.935038,21.8739216 90.3897634,22.131199 89.70624,22.33088 C89.0227166,22.530561 88.2892839,22.6304 87.50592,22.6304 C86.3385542,22.6304 85.3094445,22.3577627 84.41856,21.81248 C83.5276755,21.2671973 82.8403224,20.5145648 82.35648,19.55456 C81.8726376,18.5945552 81.63072,17.5232059 81.63072,16.34048 C81.63072,15.1577541 81.8841575,14.0864048 82.39104,13.1264 C82.8979225,12.1663952 83.6044755,11.4137627 84.51072,10.86848 C85.4169645,10.3231973 86.4537542,10.05056 87.62112,10.05056 Z M99.46368,21.29408 C99.46368,21.6012815 99.3561611,21.8623989 99.14112,22.07744 C98.9260789,22.2924811 98.6649615,22.4 98.35776,22.4 C98.0505585,22.4 97.793281,22.2924811 97.58592,22.07744 C97.378559,21.8623989 97.27488,21.6012815 97.27488,21.29408 L97.27488,6.45632 C97.27488,6.14911846 97.3823989,5.88800108 97.59744,5.67296 C97.8124811,5.45791892 98.0735985,5.3504 98.3808,5.3504 C98.6880015,5.3504 98.945279,5.45791892 99.15264,5.67296 C99.360001,5.88800108 99.46368,6.14911846 99.46368,6.45632 L99.46368,21.29408 Z M116.16768,15.90272 C116.15232,16.1792014 116.037121,16.413439 115.82208,16.60544 C115.607039,16.797441 115.353601,16.89344 115.06176,16.89344 L106.95168,16.89344 C107.059201,18.0147256 107.485436,18.9132766 108.2304,19.58912 C108.975364,20.2649634 109.885435,20.60288 110.96064,20.60288 C111.697924,20.60288 112.296958,20.4953611 112.75776,20.28032 C113.218562,20.0652789 113.625598,19.7888017 113.97888,19.45088 C114.209281,19.3126393 114.431999,19.24352 114.64704,19.24352 C114.908161,19.24352 115.127039,19.3356791 115.30368,19.52 C115.480321,19.7043209 115.56864,19.9193588 115.56864,20.16512 C115.56864,20.4876816 115.415042,20.7795187 115.10784,21.04064 C114.662398,21.4860822 114.071044,21.8623985 113.33376,22.1696 C112.596476,22.4768015 111.843844,22.6304 111.07584,22.6304 C109.831674,22.6304 108.737285,22.3692826 107.79264,21.84704 C106.847995,21.3247974 106.118403,20.5952047 105.60384,19.65824 C105.089277,18.7212753 104.832,17.6614459 104.832,16.47872 C104.832,15.1884735 105.096957,14.0556849 105.62688,13.08032 C106.156803,12.1049551 106.855676,11.3561626 107.72352,10.83392 C108.591364,10.3116774 109.524475,10.05056 110.52288,10.05056 C111.505925,10.05056 112.427516,10.3039975 113.28768,10.81088 C114.147844,11.3177625 114.839037,12.0166355 115.36128,12.90752 C115.883523,13.7984045 116.15232,14.7967945 116.16768,15.90272 Z M110.52288,12.07808 C109.662716,12.07808 108.917763,12.3199976 108.288,12.80384 C107.658237,13.2876824 107.243521,14.0364749 107.04384,15.05024 L113.84064,15.05024 L113.84064,14.86592 C113.76384,14.0518359 113.399043,13.3836826 112.74624,12.86144 C112.093437,12.3391974 111.352324,12.07808 110.52288,12.07808 Z M123.65568,21.29408 C123.65568,21.6012815 123.552001,21.8623989 123.34464,22.07744 C123.137279,22.2924811 122.872322,22.4 122.54976,22.4 C122.242558,22.4 121.985281,22.2924811 121.77792,22.07744 C121.570559,21.8623989 121.46688,21.6012815 121.46688,21.29408 L121.46688,11.31776 C121.46688,11.0105585 121.570559,10.7494411 121.77792,10.5344 C121.985281,10.3193589 122.242558,10.21184 122.54976,10.21184 C122.872322,10.21184 123.137279,10.3193589 123.34464,10.5344 C123.552001,10.7494411 123.65568,11.0105585 123.65568,11.31776 L123.65568,21.29408 Z M122.54976,8.6912 C122.104318,8.6912 121.785601,8.61056081 121.5936,8.44928 C121.401599,8.28799919 121.3056,8.03072177 121.3056,7.67744 L121.3056,7.3088 C121.3056,6.94015816 121.409279,6.67904077 121.61664,6.52544 C121.824001,6.37183923 122.142718,6.29504 122.5728,6.29504 C123.002882,6.29504 123.313919,6.37567919 123.50592,6.53696 C123.697921,6.69824081 123.79392,6.95551823 123.79392,7.3088 L123.79392,7.67744 C123.79392,8.04608184 123.694081,8.30719923 123.4944,8.4608 C123.294719,8.61440077 122.979842,8.6912 122.54976,8.6912 Z" id="Nuclei" fill="#009EFF"></path>
                </g>
            </g>
        </g>
    </g>
</svg>