<svg width="139" height="52" viewBox="0 0 139 52" fill="none" xmlns="http://www.w3.org/2000/svg">
<path fill-rule="evenodd" clip-rule="evenodd" d="M25.5115 7.6543C35.4433 7.6543 43.4995 15.8727 43.4995 26.0064C43.4995 36.1385 35.4433 44.3584 25.5115 44.3584C15.5767 44.3584 7.52344 36.1385 7.52344 26.0064C7.52344 15.8727 15.5767 7.6543 25.5115 7.6543Z" fill="#B52025"/>
<path fill-rule="evenodd" clip-rule="evenodd" d="M32.5797 45.4295C34.0365 43.4022 37.1506 44.7371 38.6223 42.9643C39.2965 42.1506 38.7099 41.2203 38.1916 41.1915C36.8224 41.1188 38.1456 42.9537 38.303 41.6627C38.6535 42.8249 36.564 42.3855 37.2531 41.1657C37.9466 39.9445 40.082 41.7309 39.1316 43.0507C37.6748 45.078 34.5607 43.7446 33.0891 45.5159C32.4134 46.3295 33.0015 47.2599 33.5168 47.2856C34.8889 47.3629 33.5643 45.525 33.4099 46.8159C33.0579 45.6568 35.1488 46.0932 34.4583 47.3144C33.8064 48.466 31.5818 46.8174 32.5797 45.4295ZM5.26577 31.9215C4.19211 28.0699 4.18914 23.9743 5.26429 20.1227C5.56278 20.1439 5.87315 20.0621 6.17164 19.8394C6.2548 19.7788 6.33053 19.7136 6.40181 19.6485C5.0846 23.7789 5.0846 28.2517 6.40181 32.3837C6.32756 32.3125 6.24737 32.2443 6.16273 32.1822C5.87463 31.967 5.56575 31.8958 5.26577 31.9215ZM19.7135 5.37077C23.4899 4.27225 27.5114 4.27225 31.2848 5.36925C31.261 5.67381 31.3323 5.992 31.5432 6.28292C31.607 6.3708 31.6709 6.45262 31.7362 6.52989C27.6896 5.18288 23.3058 5.18288 19.2576 6.52838C19.3244 6.45262 19.3898 6.3708 19.4536 6.28292C19.666 5.992 19.7373 5.67532 19.7135 5.37077ZM45.7385 20.1227C46.8077 23.9743 46.8077 28.0699 45.737 31.9215C45.437 31.8958 45.1267 31.967 44.8415 32.1822C44.7539 32.2443 44.6767 32.3125 44.5995 32.3837C45.9167 28.2533 45.9167 23.7789 44.5995 19.6485C44.6737 19.7136 44.748 19.7788 44.8282 19.8394C45.1296 20.0636 45.4415 20.1439 45.7385 20.1227ZM31.2774 46.6644C27.5069 47.7584 23.4959 47.7584 19.7254 46.6659C19.7477 46.3629 19.666 46.0447 19.4477 45.7371C19.3868 45.6553 19.3244 45.578 19.2606 45.5022C23.3073 46.8492 27.6955 46.8492 31.7407 45.5022C31.6783 45.578 31.6145 45.6538 31.5536 45.7371C31.3338 46.0432 31.2551 46.3614 31.2774 46.6644ZM44.5252 18.7939C42.5427 17.309 43.8495 14.1301 42.1121 12.6286C41.3146 11.9376 40.4028 12.5376 40.3776 13.0664C40.3033 14.4665 42.1017 13.1134 40.8364 12.9558C41.9754 12.5967 41.5478 14.7286 40.3493 14.0256C39.1539 13.321 40.9018 11.1406 42.1997 12.1073C44.1852 13.5937 42.8754 16.7711 44.6114 18.2742C45.4118 18.9636 46.3221 18.3651 46.3488 17.8348C46.4231 16.4362 44.6217 17.7878 45.8885 17.9469C44.7495 18.303 45.1801 16.1726 46.377 16.8772C47.5027 17.5408 45.887 19.8091 44.5252 18.7939ZM32.5708 6.59353C34.0232 8.61935 37.1387 7.28294 38.6119 9.05572C39.2905 9.8709 38.701 10.7982 38.1812 10.827C36.812 10.9012 38.1352 9.06784 38.2926 10.3573C38.6401 9.19512 36.5536 9.63453 37.2427 10.8558C37.9347 12.0755 40.0716 10.2906 39.1212 8.96936C37.6659 6.94202 34.5533 8.27691 33.0802 6.50413C32.4015 5.69047 32.9911 4.76166 33.5079 4.73439C34.88 4.66014 33.5539 6.49656 33.3995 5.20561C33.0475 6.36625 35.1384 5.92836 34.4479 4.70711C33.7559 3.48283 31.6367 5.29349 32.5708 6.59353ZM44.8861 9.05118C44.2817 8.79662 43.7396 9.4921 43.1753 8.72996C43.5169 8.57692 43.8451 8.54965 44.1718 8.64965C43.9282 8.43601 43.6223 8.36176 43.2214 8.48904C43.9075 7.90872 44.4599 8.09509 44.8861 9.05118ZM45.1044 6.0617C44.5237 6.61323 44.9737 7.50113 43.8807 7.80114C43.8956 7.36628 44.0367 6.99203 44.3114 6.67687C43.9609 6.85414 43.7248 7.1587 43.6505 7.65114C43.3907 6.65414 43.8733 6.1223 45.1044 6.0617ZM42.1165 6.22534C42.369 6.83899 41.6844 7.39507 42.4313 7.97084C42.5798 7.62386 42.6051 7.28446 42.5071 6.95415C42.718 7.20415 42.7922 7.51477 42.6675 7.92084C43.2407 7.22537 43.0565 6.65868 42.1165 6.22534ZM40.4221 10.0436C42.0705 9.09815 41.87 7.33295 41.0042 7.039C40.3078 6.80111 39.7286 7.20112 39.6603 7.6875C39.595 8.17388 40.3404 8.88754 40.7518 7.73296C40.8216 9.43604 38.6015 8.22085 39.6365 7.08748C40.2142 6.45262 41.6176 6.31776 41.9131 7.89054C42.2056 9.46331 40.4221 10.0436 40.4221 10.0436ZM41.1468 10.7785C42.0735 9.09815 43.799 9.3027 44.0916 10.1861C44.3247 10.8967 43.9327 11.4876 43.4545 11.5558C42.9778 11.624 42.2784 10.8618 43.4085 10.4436C41.7408 10.3709 42.9303 12.6331 44.0441 11.5816C44.6663 10.9921 44.7985 9.55877 43.254 9.25876C41.7126 8.95875 41.1468 10.7785 41.1468 10.7785ZM36.8596 5.84199C38.0431 4.84651 39.1301 5.61017 39.0277 6.40413C38.9475 7.04506 38.4842 7.37537 38.1426 7.26173C37.8011 7.14809 37.5887 6.30413 38.4842 6.36928C37.3927 5.72987 37.4313 7.92842 38.5257 7.48447C39.1405 7.23749 39.7093 6.15715 38.7827 5.38289C37.8486 4.60862 36.8596 5.84199 36.8596 5.84199ZM45.2633 14.4165C46.2389 13.2074 45.492 12.0998 44.7138 12.2073C44.0857 12.2907 43.7619 12.7604 43.8718 13.1104C43.9832 13.4589 44.8089 13.6725 44.7465 12.7589C45.3747 13.8725 43.2184 13.8362 43.6505 12.718C43.8941 12.0907 44.9529 11.5103 45.7118 12.4573C46.4721 13.4059 45.2633 14.4165 45.2633 14.4165ZM18.4201 45.4295C16.9648 43.4022 13.8492 44.7371 12.379 42.9643C11.7004 42.1506 12.2884 41.2203 12.8067 41.1915C14.1789 41.1188 12.8527 42.9537 12.6953 41.6627C12.3478 42.8249 14.4373 42.3855 13.7452 41.1657C13.0532 39.9445 10.9192 41.7309 11.8667 43.0507C13.3235 45.078 16.4376 43.7446 17.9107 45.5159C18.5849 46.3295 17.9983 47.2599 17.4801 47.2856C16.1064 47.3629 17.4325 45.525 17.5885 46.8159C17.9389 45.6568 15.8495 46.0932 16.54 47.3144C17.1934 48.466 19.418 46.8174 18.4201 45.4295ZM6.46419 33.2292C8.45114 34.7156 7.14284 37.8914 8.88031 39.393C9.67777 40.0839 10.5866 39.4839 10.6178 38.9551C10.6891 37.555 8.89071 38.9081 10.1545 39.0642C9.01545 39.4233 9.4461 37.2899 10.643 37.9944C11.8385 38.699 10.0891 40.8779 8.79418 39.9112C6.80871 38.4248 8.11553 35.2459 6.37805 33.7474C5.57763 33.0564 4.66731 33.6549 4.64355 34.1852C4.5693 35.5838 6.36766 34.2322 5.10391 34.0746C6.24143 33.717 5.81226 35.8489 4.61534 35.1444C3.41544 34.4383 5.19152 32.2761 6.46419 33.2292ZM8.87437 45.7947C8.62192 45.1841 9.30206 44.6265 8.55955 44.0492C8.40956 44.3946 8.38283 44.734 8.48381 45.0659C8.27294 44.8189 8.19869 44.5052 8.32491 44.0992C7.75021 44.7962 7.93584 45.3628 8.87437 45.7947ZM5.94443 46.0159C6.48201 45.4235 7.35371 45.8826 7.64923 44.7704C7.22303 44.7825 6.85326 44.9295 6.54735 45.2098C6.72109 44.8477 7.01958 44.6068 7.50221 44.5371C6.52507 44.2689 6.00234 44.7613 5.94443 46.0159ZM6.10481 42.9703C6.70476 43.2249 7.24828 42.5294 7.81555 43.2885C7.47697 43.4431 7.14581 43.4704 6.8191 43.3688C7.06265 43.5825 7.36856 43.6582 7.76506 43.5295C7.08344 44.1143 6.52804 43.928 6.10481 42.9703ZM9.84409 41.2445C8.91744 42.9203 7.19184 42.7173 6.90078 41.8355C6.66763 41.1248 7.05968 40.5309 7.53785 40.4657C8.01454 40.3945 8.7125 41.1597 7.58092 41.5779C9.25157 41.6491 8.0591 39.3869 6.94979 40.4415C6.32608 41.0309 6.19391 42.4643 7.73536 42.7628C9.27681 43.0628 9.84409 41.2445 9.84409 41.2445ZM10.5688 41.9779C8.92041 42.9249 9.12088 44.6886 9.98665 44.9825C10.6831 45.2204 11.2623 44.8204 11.3276 44.331C11.3944 43.8461 10.6519 43.1355 10.2376 44.2855C10.1678 42.5825 12.3864 43.8007 11.3514 44.934C10.7752 45.5689 9.37037 45.7038 9.07485 44.1295C8.78378 42.5567 10.5688 41.9779 10.5688 41.9779ZM5.7291 37.6066C4.75047 38.8111 5.50338 39.9203 6.28153 39.8157C6.90969 39.7324 7.23343 39.2627 7.12056 38.9142C7.00919 38.5642 6.185 38.3505 6.24589 39.2642C5.61772 38.1505 7.77249 38.1884 7.33886 39.3051C7.09829 39.9324 6.03799 40.5142 5.27766 39.5642C4.5203 38.6142 5.7291 37.6066 5.7291 37.6066ZM14.1299 46.178C12.9493 47.175 11.8622 46.4114 11.9617 45.6159C12.0464 44.975 12.5067 44.6446 12.8483 44.7598C13.1913 44.8734 13.4007 45.7144 12.5067 45.6492C13.5967 46.2917 13.5611 44.0916 12.4637 44.534C11.8533 44.781 11.2801 45.8629 12.2097 46.6402C13.1408 47.4144 14.1299 46.178 14.1299 46.178ZM6.47161 18.7939C8.46154 17.309 7.15026 14.1301 8.88774 12.6286C9.68816 11.9376 10.597 12.5376 10.6252 13.0664C10.6965 14.4665 8.89813 13.1134 10.1619 12.9558C9.02436 12.5967 9.45353 14.7286 10.6505 14.0256C11.8489 13.321 10.0965 11.1406 8.80458 12.1073C6.81465 13.5937 8.12444 16.7711 6.38845 18.2742C5.58802 18.9636 4.67771 18.3651 4.65098 17.8348C4.57673 16.4362 6.37508 17.7878 5.11133 17.9469C6.24886 18.303 5.82266 16.1726 4.62425 16.8772C3.49563 17.5408 5.11282 19.8091 6.47161 18.7939ZM18.429 6.59353C16.9737 8.61935 13.8611 7.28294 12.3879 9.05572C11.7122 9.8709 12.2988 10.7982 12.8156 10.827C14.1878 10.9012 12.8631 9.06784 12.7072 10.3573C12.3597 9.19512 14.4462 9.63453 13.7571 10.8558C13.0651 12.0755 10.9282 10.2906 11.8756 8.96936C13.3324 6.94202 16.448 8.27691 17.9196 6.50413C18.5953 5.69047 18.0072 4.76166 17.4875 4.73439C16.1183 4.66014 17.4444 6.49656 17.5989 5.2041C17.9493 6.36625 15.8599 5.92836 16.5504 4.70711C17.2469 3.48283 19.3645 5.29349 18.429 6.59353ZM6.11372 9.05118C6.71664 8.79662 7.26016 9.4921 7.82298 8.72996C7.48588 8.57692 7.15472 8.54965 6.8295 8.64965C7.07304 8.43601 7.37896 8.36176 7.77694 8.48904C7.09235 7.90872 6.53992 8.09509 6.11372 9.05118ZM5.89839 6.0617C6.47755 6.61323 6.02907 7.50113 7.11759 7.80114C7.10423 7.36628 6.96315 6.99203 6.68694 6.67687C7.04186 6.85414 7.27798 7.1587 7.35074 7.65114C7.6121 6.65414 7.1265 6.1223 5.89839 6.0617ZM8.88328 6.22534C8.63083 6.83899 9.31394 7.39507 8.56994 7.97084C8.41847 7.62386 8.39322 7.28446 8.49421 6.95415C8.28185 7.20415 8.20908 7.51477 8.33382 7.92084C7.76209 7.22537 7.94475 6.65868 8.88328 6.22534ZM10.5777 10.0436C8.93377 9.09815 9.12979 7.33295 9.99556 7.039C10.6935 6.80111 11.2712 7.20112 11.3395 7.6875C11.4063 8.17388 10.6608 8.88754 10.248 7.73296C10.1782 9.43604 12.3968 8.22085 11.3633 7.08748C10.7856 6.45262 9.38225 6.31776 9.08673 7.89054C8.79418 9.46331 10.5777 10.0436 10.5777 10.0436ZM9.85597 10.7785C8.92932 9.09966 7.19927 9.3027 6.90969 10.1861C6.67654 10.8967 7.07007 11.4876 7.54676 11.5558C8.02346 11.624 8.72141 10.8618 7.5928 10.4436C9.26345 10.3709 8.06949 12.6331 6.96018 11.5816C6.33796 10.9921 6.20579 9.55877 7.74724 9.25876C9.28869 8.95875 9.85597 10.7785 9.85597 10.7785ZM14.1417 5.84199C12.9582 4.84651 11.8711 5.61017 11.9736 6.40413C12.0568 7.04657 12.5186 7.37537 12.8602 7.26173C13.2017 7.14809 13.4126 6.30413 12.5171 6.36928C13.6086 5.72987 13.5745 7.9269 12.4741 7.48447C11.8637 7.23749 11.2935 6.15715 12.2216 5.38289C13.1497 4.60862 14.1417 5.84199 14.1417 5.84199ZM5.73801 14.4165C4.76235 13.2074 5.51229 12.0998 6.29044 12.2073C6.9186 12.2907 7.24234 12.7604 7.13244 13.1104C7.01958 13.4589 6.1954 13.6725 6.25777 12.7589C5.63109 13.8725 7.78437 13.8362 7.35074 12.718C7.10868 12.0907 6.04986 11.5103 5.28954 12.4573C4.52772 13.4059 5.73801 14.4165 5.73801 14.4165ZM44.5371 33.2292C42.5472 34.7156 43.8584 37.8914 42.121 39.393C41.3235 40.0839 40.4147 39.4839 40.3865 38.9551C40.3122 37.555 42.1135 38.9081 40.8468 39.0642C41.9844 39.4233 41.5581 37.2899 40.3583 37.9944C39.1643 38.699 40.9151 40.8779 42.2071 39.9112C44.1941 38.4248 42.8858 35.2459 44.6232 33.7474C45.4237 33.0564 46.3325 33.6549 46.3607 34.1852C46.432 35.5838 44.6366 34.2322 45.8974 34.0746C44.7584 33.717 45.189 35.8489 46.3859 35.1444C47.5844 34.4383 45.8112 32.2761 44.5371 33.2292ZM42.1269 45.7947C42.3764 45.1841 41.6963 44.6265 42.4403 44.0492C42.5902 44.3946 42.617 44.734 42.516 45.0659C42.7283 44.8189 42.8026 44.5052 42.6764 44.0992C43.2496 44.7962 43.0669 45.3628 42.1269 45.7947ZM45.0583 46.0159C44.5163 45.4235 43.6476 45.8826 43.3535 44.7704C43.7768 44.7825 44.1451 44.9295 44.4554 45.2098C44.2787 44.8477 43.9817 44.6068 43.5006 44.5371C44.4777 44.2689 44.996 44.7613 45.0583 46.0159ZM44.895 42.9703C44.2965 43.2249 43.7486 42.5294 43.1857 43.2885C43.5243 43.4431 43.8555 43.4704 44.1822 43.3688C43.9386 43.5825 43.6327 43.6582 43.2318 43.5295C43.9193 44.1143 44.4718 43.928 44.895 42.9703ZM41.1557 41.2445C42.0824 42.9188 43.8109 42.7173 44.1005 41.8355C44.3351 41.1248 43.9416 40.5309 43.4649 40.4657C42.9882 40.3945 42.2888 41.1597 43.4189 41.5779C41.7482 41.6491 42.9407 39.3869 44.0515 40.4415C44.6737 41.0309 44.8089 42.4643 43.2644 42.7628C41.723 43.0628 41.1557 41.2445 41.1557 41.2445ZM40.434 41.9779C42.0779 42.9249 41.8819 44.6886 41.0146 44.9825C40.3211 45.2204 39.739 44.8189 39.6707 44.331C39.6068 43.8461 40.3493 43.1355 40.7622 44.2855C40.832 42.5825 38.6134 43.8007 39.6484 44.934C40.2276 45.5689 41.6294 45.7038 41.9235 44.1295C42.2145 42.5567 40.434 41.9779 40.434 41.9779ZM45.2722 37.6066C46.2508 38.8111 45.5009 39.9203 44.7198 39.8157C44.0931 39.7324 43.7679 39.2627 43.8807 38.9142C43.9921 38.5642 44.8178 38.3505 44.7554 39.2642C45.3836 38.1505 43.2288 38.1884 43.6595 39.3051C43.903 39.9324 44.9648 40.5142 45.7251 39.5642C46.481 38.6142 45.2722 37.6066 45.2722 37.6066ZM36.8699 46.178C38.0505 47.175 39.1376 46.4114 39.0351 45.6144C38.9549 44.975 38.4931 44.6446 38.15 44.7598C37.8085 44.8734 37.5961 45.7144 38.4931 45.6492C37.4001 46.2917 37.4402 44.0916 38.5347 44.534C39.145 44.781 39.7182 45.8629 38.7871 46.6402C37.859 47.4144 36.8699 46.178 36.8699 46.178Z" fill="#CFAA30"/>
<path fill-rule="evenodd" clip-rule="evenodd" d="M25.5115 7.6543C35.4433 7.6543 43.4995 15.8727 43.4995 26.0064C43.4995 36.1385 35.4433 44.3584 25.5115 44.3584C15.5767 44.3584 7.52344 36.1385 7.52344 26.0064C7.52344 15.8727 15.5767 7.6543 25.5115 7.6543ZM25.5115 8.49069C34.9889 8.49069 42.6738 16.3364 42.6738 26.0064C42.6738 35.6763 34.9903 43.519 25.5115 43.519C16.0311 43.519 8.34465 35.6763 8.34465 26.0064C8.34465 16.3364 16.0311 8.49069 25.5115 8.49069Z" fill="#CFAA30"/>
<path d="M16.0737 18.9062L20.0863 28.9156L20.906 26.8565L17.7043 18.9062H16.0737Z" fill="#CFAA30"/>
<path d="M22.265 30.4427L22.0556 29.9124L21.0518 32.4594L21.6651 34.014H22.069L25.2826 25.8092L24.6871 24.291L22.265 30.4427Z" fill="#CFAA30"/>
<path d="M30.5286 26.8762L27.3091 18.9062H26.8517L26.2637 20.3866L29.7134 28.9429L30.5286 26.8762Z" fill="#CFAA30"/>
<path d="M36.4568 18.9062L31.8933 30.4717L31.6691 29.896L30.6533 32.4566L31.2666 34.0143H31.6735L36.736 21.1972C37.2037 20.073 37.4012 19.8048 37.7562 19.3229L38.0576 18.9062H36.4568V18.9062Z" fill="#CFAA30"/>
<path d="M34.2456 18.9062L29.6837 30.4717L25.0994 18.9062H24.6405L20.0548 30.4445L15.4928 18.9062H12.9668L13.1643 19.1457C13.2267 19.2229 13.2876 19.2926 13.347 19.3608C13.693 19.7593 13.9425 20.0487 14.3909 21.1684L19.4548 34.0143H19.8573L24.4712 22.3427L29.0555 34.0143H29.4624L34.5263 21.1972C34.9941 20.073 35.1901 19.8048 35.5435 19.3229L35.8435 18.9062H34.2456V18.9062Z" fill="#CFAA30"/>
<path d="M66.1118 9.688H67.8078L69.1998 13.544L70.6078 9.688H72.2878L70.3518 14.744L72.0478 18.92L75.5838 9.64H77.5518L72.8638 21H71.3278L69.2158 15.912L67.0878 21H65.5518L60.8638 9.64H62.8158L66.3678 18.92L68.0638 14.744L66.1118 9.688ZM86.6843 19.416V21H78.8923V9.64H86.5403V11.224H80.6843V14.456H85.7563V15.944H80.6843V19.416H86.6843ZM88.5329 21V9.64H92.5649C93.4823 9.64 94.2823 9.78933 94.9649 10.088C95.6583 10.3867 96.2343 10.792 96.6929 11.304C97.1623 11.816 97.5143 12.4187 97.7489 13.112C97.9836 13.7947 98.1009 14.5253 98.1009 15.304C98.1009 16.168 97.9676 16.952 97.7009 17.656C97.4449 18.3493 97.0769 18.9467 96.5969 19.448C96.1169 19.9387 95.5356 20.3227 94.8529 20.6C94.1703 20.8667 93.4076 21 92.5649 21H88.5329ZM96.2769 15.304C96.2769 14.7067 96.1916 14.1573 96.0209 13.656C95.8609 13.1547 95.6209 12.728 95.3009 12.376C94.9809 12.0133 94.5916 11.7307 94.1329 11.528C93.6743 11.3253 93.1516 11.224 92.5649 11.224H90.3249V19.416H92.5649C93.1623 19.416 93.6903 19.3147 94.1489 19.112C94.6183 18.8987 95.0076 18.6107 95.3169 18.248C95.6369 17.8747 95.8769 17.4373 96.0369 16.936C96.1969 16.4347 96.2769 15.8907 96.2769 15.304ZM99.9861 21V9.64H104.018C104.935 9.64 105.735 9.78933 106.418 10.088C107.111 10.3867 107.687 10.792 108.146 11.304C108.615 11.816 108.967 12.4187 109.202 13.112C109.437 13.7947 109.554 14.5253 109.554 15.304C109.554 16.168 109.421 16.952 109.154 17.656C108.898 18.3493 108.53 18.9467 108.05 19.448C107.57 19.9387 106.989 20.3227 106.306 20.6C105.623 20.8667 104.861 21 104.018 21H99.9861ZM107.73 15.304C107.73 14.7067 107.645 14.1573 107.474 13.656C107.314 13.1547 107.074 12.728 106.754 12.376C106.434 12.0133 106.045 11.7307 105.586 11.528C105.127 11.3253 104.605 11.224 104.018 11.224H101.778V19.416H104.018C104.615 19.416 105.143 19.3147 105.602 19.112C106.071 18.8987 106.461 18.6107 106.77 18.248C107.09 17.8747 107.33 17.4373 107.49 16.936C107.65 16.4347 107.73 15.8907 107.73 15.304ZM111.439 21V9.64H113.231V21H111.439ZM117.591 13V21H115.799V9.64H117.207L123.703 17.832V9.656H125.511V21H124.023L117.591 13ZM136.016 19.592C135.056 20.584 133.952 21.08 132.704 21.08C131.947 21.08 131.243 20.9253 130.592 20.616C129.942 20.296 129.376 19.8693 128.896 19.336C128.416 18.8027 128.038 18.184 127.76 17.48C127.494 16.776 127.36 16.04 127.36 15.272C127.36 14.504 127.494 13.7733 127.76 13.08C128.038 12.3867 128.416 11.7787 128.896 11.256C129.376 10.7333 129.947 10.3227 130.608 10.024C131.27 9.71467 131.99 9.56 132.768 9.56C133.856 9.56 134.768 9.78933 135.504 10.248C136.24 10.696 136.795 11.2933 137.168 12.04L135.792 13.032C135.483 12.4133 135.056 11.9493 134.512 11.64C133.968 11.3307 133.371 11.176 132.72 11.176C132.187 11.176 131.702 11.2933 131.264 11.528C130.827 11.752 130.454 12.056 130.144 12.44C129.835 12.8133 129.595 13.2507 129.424 13.752C129.264 14.2533 129.184 14.776 129.184 15.32C129.184 15.896 129.275 16.4347 129.456 16.936C129.648 17.4373 129.904 17.8747 130.224 18.248C130.555 18.6213 130.944 18.92 131.392 19.144C131.84 19.3573 132.326 19.464 132.848 19.464C133.424 19.464 133.974 19.3307 134.496 19.064C135.03 18.7973 135.536 18.376 136.016 17.8V16.584H133.632V15.256H137.52V21H136.016V19.592ZM66.1118 29.688H67.8078L69.1998 33.544L70.6078 29.688H72.2878L70.3518 34.744L72.0478 38.92L75.5838 29.64H77.5518L72.8638 41H71.3278L69.2158 35.912L67.0878 41H65.5518L60.8638 29.64H62.8158L66.3678 38.92L68.0638 34.744L66.1118 29.688ZM78.8923 41V29.64H80.6843V41H78.8923ZM89.9717 32.312C89.865 32.1947 89.7103 32.072 89.5077 31.944C89.305 31.8053 89.065 31.6773 88.7877 31.56C88.521 31.4427 88.2223 31.3467 87.8917 31.272C87.5717 31.1973 87.241 31.16 86.8997 31.16C86.1423 31.16 85.5823 31.2987 85.2197 31.576C84.8677 31.8533 84.6917 32.2373 84.6917 32.728C84.6917 33.0053 84.745 33.2347 84.8517 33.416C84.969 33.5867 85.145 33.7413 85.3797 33.88C85.6143 34.008 85.9077 34.1253 86.2597 34.232C86.6117 34.328 87.0223 34.4347 87.4917 34.552C88.0677 34.6907 88.585 34.8453 89.0437 35.016C89.513 35.1867 89.9077 35.3947 90.2277 35.64C90.5477 35.8853 90.793 36.1893 90.9637 36.552C91.145 36.904 91.2357 37.336 91.2357 37.848C91.2357 38.424 91.1237 38.92 90.8997 39.336C90.6863 39.752 90.3877 40.0933 90.0037 40.36C89.6303 40.616 89.193 40.808 88.6917 40.936C88.1903 41.0533 87.6517 41.112 87.0757 41.112C86.2117 41.112 85.3743 40.984 84.5637 40.728C83.7637 40.4613 83.0383 40.0773 82.3877 39.576L83.2037 38.04C83.3423 38.1787 83.5397 38.3333 83.7957 38.504C84.0623 38.6747 84.3663 38.8347 84.7077 38.984C85.0597 39.1227 85.4383 39.2453 85.8437 39.352C86.249 39.448 86.6703 39.496 87.1077 39.496C87.8117 39.496 88.3557 39.3733 88.7397 39.128C89.1237 38.8827 89.3157 38.52 89.3157 38.04C89.3157 37.752 89.241 37.512 89.0917 37.32C88.953 37.128 88.7503 36.9627 88.4837 36.824C88.217 36.6747 87.8917 36.5413 87.5077 36.424C87.1237 36.3067 86.6863 36.184 86.1957 36.056C85.6303 35.9067 85.1343 35.752 84.7077 35.592C84.2917 35.4213 83.945 35.2187 83.6677 34.984C83.3903 34.7493 83.177 34.4773 83.0277 34.168C82.889 33.848 82.8197 33.464 82.8197 33.016C82.8197 32.4613 82.9263 31.9707 83.1397 31.544C83.353 31.1067 83.641 30.744 84.0037 30.456C84.377 30.1573 84.8143 29.9333 85.3157 29.784C85.817 29.6347 86.361 29.56 86.9477 29.56C87.7157 29.56 88.425 29.6827 89.0757 29.928C89.7263 30.1733 90.297 30.4773 90.7877 30.84L89.9717 32.312ZM102.361 29.64V41H100.553V35.992H94.8249V41H93.0329V29.64H94.8249V34.392H100.553V29.64H102.361ZM104.924 41V29.64H106.716V39.416H112.812V41H104.924ZM114.267 41V29.64H116.059V41H114.267ZM125.347 32.312C125.24 32.1947 125.085 32.072 124.883 31.944C124.68 31.8053 124.44 31.6773 124.163 31.56C123.896 31.4427 123.597 31.3467 123.267 31.272C122.947 31.1973 122.616 31.16 122.275 31.16C121.517 31.16 120.957 31.2987 120.595 31.576C120.243 31.8533 120.067 32.2373 120.067 32.728C120.067 33.0053 120.12 33.2347 120.227 33.416C120.344 33.5867 120.52 33.7413 120.755 33.88C120.989 34.008 121.283 34.1253 121.635 34.232C121.987 34.328 122.397 34.4347 122.867 34.552C123.443 34.6907 123.96 34.8453 124.419 35.016C124.888 35.1867 125.283 35.3947 125.603 35.64C125.923 35.8853 126.168 36.1893 126.339 36.552C126.52 36.904 126.611 37.336 126.611 37.848C126.611 38.424 126.499 38.92 126.275 39.336C126.061 39.752 125.763 40.0933 125.379 40.36C125.005 40.616 124.568 40.808 124.067 40.936C123.565 41.0533 123.027 41.112 122.451 41.112C121.587 41.112 120.749 40.984 119.939 40.728C119.139 40.4613 118.413 40.0773 117.763 39.576L118.579 38.04C118.717 38.1787 118.915 38.3333 119.171 38.504C119.437 38.6747 119.741 38.8347 120.083 38.984C120.435 39.1227 120.813 39.2453 121.219 39.352C121.624 39.448 122.045 39.496 122.483 39.496C123.187 39.496 123.731 39.3733 124.115 39.128C124.499 38.8827 124.691 38.52 124.691 38.04C124.691 37.752 124.616 37.512 124.467 37.32C124.328 37.128 124.125 36.9627 123.859 36.824C123.592 36.6747 123.267 36.5413 122.883 36.424C122.499 36.3067 122.061 36.184 121.571 36.056C121.005 35.9067 120.509 35.752 120.083 35.592C119.667 35.4213 119.32 35.2187 119.043 34.984C118.765 34.7493 118.552 34.4773 118.403 34.168C118.264 33.848 118.195 33.464 118.195 33.016C118.195 32.4613 118.301 31.9707 118.515 31.544C118.728 31.1067 119.016 30.744 119.379 30.456C119.752 30.1573 120.189 29.9333 120.691 29.784C121.192 29.6347 121.736 29.56 122.323 29.56C123.091 29.56 123.8 29.6827 124.451 29.928C125.101 30.1733 125.672 30.4773 126.163 30.84L125.347 32.312ZM136.666 31.224H132.89V41H131.082V31.224H127.29V29.64H136.666V31.224Z" fill="#B52025"/>
</svg>
